<svg width="87" height="69" viewBox="0 0 87 69" fill="none" xmlns="http://www.w3.org/2000/svg">
<path d="M36.6317 0C13.7367 0 0 18.3999 0 27.6007C0 36.8016 4.57828 43.7018 13.7367 43.7018C22.895 43.7018 27.4751 46.0006 27.4751 52.9008C27.4751 62.0998 34.3425 69 43.5009 69C73.2652 69 87 52.9008 87 36.8016C86.9982 9.20085 64.0995 0 36.6317 0ZM30.9079 9.20085C31.6605 9.2018 32.4056 9.35126 33.1005 9.64069C33.7955 9.93011 34.4267 10.3538 34.9582 10.8877C35.4897 11.4215 35.9111 12.055 36.1982 12.752C36.4853 13.449 36.6326 14.1958 36.6317 14.9498C36.6317 18.1275 34.0689 20.7005 30.9079 20.7005C27.747 20.7005 25.1842 18.1257 25.1842 14.9498C25.1832 14.1958 25.3305 13.449 25.6176 12.752C25.9048 12.055 26.3261 11.4215 26.8576 10.8877C27.3891 10.3538 28.0204 9.93011 28.7153 9.64069C29.4103 9.35126 30.1553 9.2018 30.9079 9.20085ZM49.221 9.20085C49.9736 9.2018 50.7187 9.35126 51.4136 9.64069C52.1086 9.93011 52.7398 10.3538 53.2713 10.8877C53.8028 11.4215 54.2242 12.055 54.5113 12.752C54.7985 13.449 54.9457 14.1958 54.9448 14.9498C54.946 15.7039 54.7989 16.451 54.5118 17.1481C54.2248 17.8453 53.8035 18.479 53.272 19.0131C52.7405 19.5471 52.1091 19.971 51.4141 20.2605C50.719 20.5501 49.9738 20.6996 49.221 20.7005C48.4684 20.6994 47.7234 20.5497 47.0286 20.26C46.3337 19.9704 45.7026 19.5464 45.1713 19.0124C44.6399 18.4784 44.2188 17.8448 43.9319 17.1477C43.645 16.4507 43.4979 15.7038 43.4991 14.9498C43.4972 13.4273 44.0989 11.9664 45.1719 10.8883C46.2449 9.81024 47.7014 9.20325 49.221 9.20085ZM67.5378 18.3999C68.2907 18.4006 69.0361 18.5499 69.7314 18.8394C70.4266 19.1288 71.0582 19.5527 71.5899 20.0867C72.1216 20.6208 72.5431 21.2546 72.8302 21.9519C73.1174 22.6492 73.2645 23.3963 73.2634 24.1506C73.2645 24.9049 73.1173 25.6519 72.8302 26.3491C72.543 27.0463 72.1215 27.68 71.5898 28.2139C71.0581 28.7478 70.4265 29.1715 69.7312 29.4607C69.036 29.75 68.2906 29.8991 67.5378 29.8996C66.7852 29.8989 66.0401 29.7496 65.3452 29.4602C64.6502 29.1708 64.019 28.7471 63.4876 28.2132C62.9562 27.6793 62.535 27.0457 62.2482 26.3486C61.9613 25.6515 61.8144 24.9046 61.8158 24.1506C61.8144 23.3966 61.9613 22.6496 62.2481 21.9524C62.535 21.2552 62.9561 20.6215 63.4875 20.0875C64.0188 19.5534 64.6501 19.1295 65.345 18.8399C66.04 18.5504 66.7851 18.4008 67.5378 18.3999ZM14.8821 23.0012C15.6346 23.0019 16.3795 23.1512 17.0743 23.4404C17.7692 23.7297 18.4003 24.1533 18.9317 24.687C19.4631 25.2207 19.8843 25.8541 20.1712 26.551C20.4582 27.2478 20.6053 27.9945 20.6041 28.7483C20.6041 31.9261 18.0413 34.4991 14.8821 34.4991C11.723 34.4991 9.15837 31.9242 9.15837 28.7483C9.15693 27.2259 9.7591 25.7651 10.8325 24.6874C11.9058 23.6097 13.3625 23.0031 14.8821 23.0012ZM43.4991 46.0006C47.2926 46.0006 50.3665 49.0875 50.3665 52.9026C50.3665 56.7122 47.2926 59.801 43.4991 59.801C39.7056 59.801 36.6317 56.7122 36.6317 52.9026C36.63 51.9976 36.8063 51.1011 37.1506 50.2644C37.4949 49.4277 38.0003 48.6671 38.6381 48.0261C39.2758 47.3852 40.0334 46.8764 40.8674 46.5288C41.7015 46.1813 42.5958 46.0018 43.4991 46.0006Z" fill="#349FCF"/>
</svg>
