<svg width="84" height="74" viewBox="0 0 84 74" fill="none" xmlns="http://www.w3.org/2000/svg">
<path d="M83.316 28.0302L80.0158 24.7594C79.1043 23.8561 77.627 23.8561 76.7156 24.7594L75.0662 26.3941L70.8516 22.2172C71.6726 19.1372 70.9041 15.7278 68.4672 13.3127L61.8682 6.77268C52.7565 -2.25756 37.982 -2.25756 28.8688 6.77268L42.0683 13.3127V16.0226C42.0683 18.4753 43.0512 20.8282 44.8027 22.5626L51.969 29.6648C54.4059 32.0799 57.8461 32.8416 60.9538 32.0279L65.1684 36.2048L63.519 37.8394C62.6076 38.7427 62.6076 40.2068 63.519 41.1101L66.8193 44.3809C67.7307 45.2842 69.208 45.2842 70.1195 44.3809L83.319 31.2994C84.2275 30.3976 84.2275 28.9335 83.316 28.0302ZM41.5025 25.8333C40.9629 25.2985 40.505 24.7074 40.066 24.1062L2.8637 58.5289C-0.86528 61.9803 -0.965905 67.8063 2.64057 71.382C6.24705 74.9576 12.1271 74.8579 15.6096 71.1608L50.3371 34.2955C49.7596 33.875 49.185 33.4472 48.6688 32.9355L41.5025 25.8333Z" fill="#329ECE"/>
</svg>
