<svg width="79" height="79" viewBox="0 0 79 79" fill="none" xmlns="http://www.w3.org/2000/svg">
<path d="M13.0026 42.4463L20.6152 50.0629L26.5121 44.1661L18.8912 36.5579L24.7797 30.6695L32.3965 38.2819L38.285 32.3935L30.6766 24.777L36.5651 18.8886L44.1694 26.5093L50.0621 20.6168L42.4453 13.0044L54.2266 1.22759C55.0075 0.446898 56.0666 0.00832908 57.1708 0.00832908C58.2751 0.00832908 59.3341 0.446898 60.1151 1.22759L77.7807 18.8927C78.5614 19.6737 79 20.7327 79 21.8369C79 22.9412 78.5614 24.0002 77.7807 24.7811L24.7797 77.7807C23.9987 78.5614 22.9397 79 21.8354 79C20.7312 79 19.6721 78.5614 18.8912 77.7807L1.22554 60.1156C0.444829 59.3347 0.00624722 58.2756 0.00624722 57.1714C0.00624722 56.0672 0.444829 55.0081 1.22554 54.2272L13.0026 42.4463ZM48.338 65.9998L66.0078 48.3347L76.9853 59.3119V76.9812H59.3197L48.338 65.9998ZM13.0026 30.6653L1.22138 18.8886C0.834182 18.5018 0.527017 18.0425 0.317444 17.537C0.10787 17.0315 0 16.4896 0 15.9423C0 15.395 0.10787 14.8532 0.317444 14.3476C0.527017 13.8421 0.834182 13.3828 1.22138 12.996L13.0026 1.21926C13.7836 0.438569 14.8426 0 15.9469 0C17.0512 0 18.1102 0.438569 18.8912 1.21926L30.6766 12.996L13.0026 30.6653Z" fill="#349FCF"/>
</svg>
