<svg width="89" height="83" viewBox="0 0 89 83" fill="none" xmlns="http://www.w3.org/2000/svg">
<path d="M79.9656 0H34.271V14.2612H45.6946V19.9656H8.56774C3.71269 19.9656 0 23.6735 0 28.5223V59.8969C0 64.7457 3.71269 68.4536 8.56774 68.4536H11.4237V83L29.4159 68.4536H48.5505V48.488H79.9656C84.8206 48.488 88.5333 44.7801 88.5333 39.9313V8.5567C88.5333 3.7079 84.8206 0 79.9656 0ZM30.8439 56.7595L29.4159 52.1959H20.5626L18.849 56.7595H11.9948L21.4194 31.3746H28.2735L37.6981 56.7595H30.8439ZM74.2538 34.2268V39.9313C70.5411 39.9313 66.5428 38.7904 63.1157 37.079C59.6886 38.7904 55.6903 39.646 51.692 39.9313L51.4064 34.2268C53.4056 34.2268 55.4047 33.9416 57.4039 33.3711C54.8335 30.8041 53.12 27.6667 52.2632 24.244H58.2606C59.1174 26.811 60.831 28.8076 62.8301 30.5189C65.9716 27.9519 67.9708 24.244 68.2563 19.9656H51.1209V14.2612H59.6886V8.5567H65.4004V14.2612H74.8249L75.1105 17.1134C75.3961 23.1031 73.1114 29.0928 68.8275 33.3711C70.8267 33.9416 72.5402 34.2268 74.2538 34.2268Z" fill="#349FCF"/>
</svg>
