<svg width="82" height="86" viewBox="0 0 82 86" fill="none" xmlns="http://www.w3.org/2000/svg">
<path d="M81.25 4.75001V13.25C81.25 21.1402 78.1156 28.7072 72.5364 34.2864C66.9572 39.8656 59.3902 43 51.5 43H47.25V47.25H68.5V77C68.5 79.2543 67.6045 81.4164 66.0104 83.0104C64.4163 84.6045 62.2543 85.5 60 85.5H26C23.7457 85.5 21.5837 84.6045 19.9896 83.0104C18.3955 81.4164 17.5 79.2543 17.5 77V47.25H38.75V34.5C38.75 26.6098 41.8844 19.0428 47.4636 13.4636C53.0428 7.88438 60.6098 4.75001 68.5 4.75001H81.25ZM15.375 0.50001C20.4749 0.495878 25.5011 1.71714 30.0305 4.06098C34.5599 6.40481 38.4599 9.8026 41.402 13.9683C36.9113 19.8697 34.486 27.0843 34.5 34.5V38.75H32.375C23.9212 38.75 15.8137 35.3918 9.83597 29.414C3.85825 23.4363 0.5 15.3288 0.5 6.87501V0.50001H15.375Z" fill="#349FCF"/>
</svg>
