<svg width="81" height="81" viewBox="0 0 81 81" fill="none" xmlns="http://www.w3.org/2000/svg">
<path d="M80.5 69.0449V68.8378L80.3536 68.6914L72.6387 60.9765C71.8642 60.202 71.0244 59.75 70.125 59.75H63.7745L44.5245 40.5L79.1544 5.87008C80.0359 5.32014 80.5 4.5038 80.5 3.46875C80.5 2.66264 80.1995 1.95823 79.6206 1.37936C79.0418 0.800489 78.3374 0.5 77.5312 0.5H75.0625C65.382 0.5 56.1631 2.27337 47.4098 5.82128C38.8122 9.30611 31.1622 14.1794 24.4628 20.4402L10.7344 6.78518L13.6973 3.8223L13.8438 3.67586V3.46875C13.8438 2.66264 13.5433 1.95822 12.9644 1.37936C12.3855 0.800488 11.6811 0.5 10.875 0.5H3.46875C2.66264 0.5 1.95823 0.800488 1.37936 1.37936C0.800488 1.95823 0.5 2.66264 0.5 3.46875V10.875C0.5 11.6811 0.800488 12.3855 1.37936 12.9644C1.95823 13.5433 2.66264 13.8437 3.46875 13.8437H3.67586L3.8223 13.6973L6.70898 10.8106L20.3648 24.4664C14.1543 31.2146 9.3062 38.876 5.82148 47.4479C2.27337 56.1758 0.5 65.382 0.5 75.0625V77.5312C0.5 78.3373 0.800489 79.0418 1.37936 79.6206C1.95823 80.1995 2.66264 80.5 3.46875 80.5C4.5037 80.5 5.31999 80.0359 5.86993 79.1546L40.4996 44.6012L59.75 63.8516V70.125C59.75 71.0244 60.202 71.8642 60.9765 72.6387L68.6914 80.3535L68.8378 80.5H69.0449H70.125H70.625V80V72.5937C70.625 72.0626 70.8131 71.6098 71.2115 71.2115C71.6098 70.8131 72.0626 70.625 72.5938 70.625H80H80.5V70.125V69.0449ZM13.3577 51.4257C17.1422 44.5334 21.9483 38.0182 27.7788 31.8805L36.3988 40.5004L6.82714 70.1458C7.61161 64.1749 9.78315 57.9357 13.3577 51.4257ZM51.4257 13.3577C57.9367 9.78257 64.1769 7.61091 70.1488 6.82676L40.5 36.4755L31.8048 27.7803C37.9925 21.9491 44.5329 17.1425 51.4257 13.3577Z" fill="#349FCF" stroke="#349FCF"/>
</svg>
