<svg xmlns="http://www.w3.org/2000/svg" width="62" height="85" style=""><rect id="backgroundrect" width="100%" height="100%" x="0" y="0" fill="none" stroke="none" class="" style=""/>
 <g id="Layer_1" style="" class="currentLayer">
  <title>Layer 1</title>
  <g id="svg_1" class="">
   <path fill="#349FCF" d="m50.3750010546875,7.75 l-4.5725,0 c-0.7995,-2.2613 -2.2788,-4.21988 -4.2351,-5.60736 c-1.9564,-1.3874900000000001 -4.2940000000000005,-2.1359 -6.6924,-2.14264 l-7.75,0 c-2.3984,0.006740000000000015 -4.736,0.7551500000000008 -6.6924,2.14264 c-1.9563000000000001,1.38748 -3.4356,3.34606 -4.2351,5.60736 l-4.5725,0 c-3.0831,0 -6.04,1.2248 -8.2201,3.4049 c-1.2377,1.2377 -2.1675,2.7257000000000002 -2.7401,4.3451 l22.5852,0 l0,-3.875 c0,-1.0277 0.4083000000000004,-2.0133 1.135,-2.74 c0.7267000000000009,-0.7267000000000009 1.7123,-1.135 2.74,-1.135 l7.75,0 c1.0277,0 2.0133,0.4083000000000004 2.74,1.135 c0.7267000000000009,0.7267000000000009 1.135,1.7123 1.135,2.74 l0,3.875 l22.5852,0 c-0.5726000000000008,-1.6194000000000002 -1.5024,-3.1074 -2.7401,-4.3451 c-2.1801,-2.1801 -5.1370000000000005,-3.4049 -8.2201,-3.4049 zm11.625,11.625 l-62,0 l0,56.25 c0,3.0831 0.22480000000000022,5.04 2.4049,7.2201 c2.1801,2.1801 4.1370000000000005,2.4049 7.2201,2.4049 l43.75,0 c3.0831,0 4.4449000000000005,-0.3199000000000005 6.625,-2.5 c2.0214,-2.0214 2.0137,-3.7691 2.0019,-6.4704 c-0.0009000000000000021,-0.2121 -0.0019000000000000045,-0.4301000000000003 -0.0019000000000000045,-0.6546000000000012 l0,-56.25 zm-46.5,15.5 c0,-2.1401 1.7349,-3.875 3.875,-3.875 l23.25,0 c2.1401,0 3.875,1.7349 3.875,3.875 c0,2.1401 -1.7349,3.875 -3.875,3.875 l-23.25,0 c-2.1401,0 -3.875,-1.7349 -3.875,-3.875 zm0,15.5 c0,-2.1401 1.7349,-3.875 3.875,-3.875 l23.25,0 c2.1401,0 3.875,1.7349 3.875,3.875 c0,2.1401 -1.7349,3.875 -3.875,3.875 l-23.25,0 c-2.1401,0 -3.875,-1.7349 -3.875,-3.875 zm3.875,11.625 c-2.1401,0 -3.875,1.7349 -3.875,3.875 c0,2.1401 1.7349,3.875 3.875,3.875 l7.75,0 c2.1401,0 3.875,-1.7349 3.875,-3.875 c0,-2.1401 -1.7349,-3.875 -3.875,-3.875 l-7.75,0 z" clip-rule="evenodd" fill-rule="evenodd" id="svg_2"/>
  </g>
 </g>

</svg>