<svg width="100" height="100" viewBox="0 0 100 100" fill="none" xmlns="http://www.w3.org/2000/svg">
<path fill-rule="evenodd" clip-rule="evenodd" d="M39.4627 32.0664C37.9257 32.8547 36.3887 33.277 34.8517 33.3333C32.404 33.4459 30.2693 33.0658 28.4477 32.1931C26.6261 31.3204 25.1176 30.1661 23.9221 28.7303C22.7267 27.2945 21.6024 25.8446 20.5493 24.3806C19.4962 22.9166 18.2296 21.5512 16.7496 20.2843C15.2695 19.0174 13.5902 18.2151 11.7117 17.8772C13.9318 16.6948 15.5826 15.8361 16.6642 15.3012C17.7458 14.7663 19.1689 14.1188 20.9336 13.3586C22.6982 12.5985 24.1783 12.1481 25.3737 12.0073C26.5691 11.8665 27.978 11.7961 29.6004 11.7961C31.2228 11.7961 32.8167 12.0636 34.3821 12.5985C35.9476 13.1334 37.6126 13.8795 39.3773 14.8367C43.8744 17.3705 45.4113 21.1993 43.9882 26.3232V26.4076C47.8591 28.7162 50.5346 31.4189 52.0146 34.5157C53.1531 32.7702 54.2916 31.4752 55.4302 30.6306C56.9671 29.5045 59.0734 28.1813 61.7488 26.661C61.1796 25.4223 60.895 24.0991 60.895 22.6914C60.895 20.9459 61.265 19.3693 62.005 17.9617C63.0866 15.822 64.5097 14.1892 66.2744 13.063C68.0391 11.9369 69.8891 11.2472 71.8246 10.9938C73.76 10.7404 75.6955 10.5574 77.6309 10.4448C79.5664 10.3322 81.5018 9.96618 83.4373 9.34682C85.3727 8.72745 86.9666 7.71393 88.219 6.30627C88.219 8.22069 88.2048 9.64242 88.1763 10.5715C88.1478 11.5005 88.1051 12.7533 88.0482 14.3299C87.9913 15.9065 87.8632 17.1171 87.664 17.9617C87.4647 18.8063 87.1943 19.862 86.8528 21.1289C86.5112 22.3958 86.0701 23.4234 85.5293 24.2117C84.9885 25 84.3339 25.8868 83.5654 26.8722C82.7969 27.8575 81.8718 28.7443 80.7903 29.5326C79.7087 30.3209 78.4848 31.081 77.1186 31.813C72.9631 34.1216 69.0352 33.7838 65.3351 30.7995C61.9196 32.3198 59.0164 34.4594 56.6256 37.2184C55.8286 39.6959 55.4302 42.0045 55.4302 44.1441C55.4302 45.8333 55.6579 47.6351 56.1133 49.5495H74.557C75.297 49.5495 75.9374 49.817 76.4782 50.3519C77.019 50.8868 77.2894 51.5202 77.2894 52.2522V57.6576C77.2894 58.3896 77.019 59.0231 76.4782 59.558C75.9374 60.0929 75.297 60.3603 74.557 60.3603H71.8246L71.0709 90.5124C70.9002 91.1317 70.5586 91.6666 70.0463 92.1171C69.534 92.5675 68.9362 92.7928 68.2531 92.7928H31.5922C30.966 92.7928 30.3967 92.5675 29.8844 92.1171C29.3721 91.6666 29.0305 91.1317 28.8598 90.5124L28.1061 60.3603H25.3737C24.6337 60.3603 23.9933 60.0929 23.4525 59.558C22.9117 59.0231 22.6413 58.3896 22.6413 57.6576V52.2522C22.6413 51.5202 22.9117 50.8868 23.4525 50.3519C23.9933 49.817 24.6337 49.5495 25.3737 49.5495H48.1722C49.3676 47.1283 49.9653 45.3265 49.9653 44.1441C49.9653 42.1734 48.9549 40.0338 46.9341 37.7252C44.9132 35.4166 42.622 33.3896 40.0604 31.6441C40.0035 31.6441 39.9181 31.7004 39.8042 31.813C39.6904 31.9256 39.5765 32.0101 39.4627 32.0664ZM64.1026 80.1268V70.7233C64.1026 70.0108 63.8134 69.3274 63.2988 68.8236C62.7841 68.3197 62.0861 68.0366 61.3583 68.0366H55.8697V72.0667H59.9861V78.7835H40.7762V72.0667H49.009V74.7534L54.4976 70.0517L49.009 65.3499V68.0366H39.404C38.6762 68.0366 37.9782 68.3197 37.4635 68.8236C36.9489 69.3274 36.6597 70.0108 36.6597 70.7233V80.1268C36.6597 81.6085 37.8892 82.8135 39.404 82.8135H61.3583C62.8731 82.8135 64.1026 81.6085 64.1026 80.1268Z" fill="#329ECE"/>
</svg>
