<svg width="100" height="100" viewBox="0 0 100 100" fill="none" xmlns="http://www.w3.org/2000/svg">
<path fill-rule="evenodd" clip-rule="evenodd" d="M18.2083 26.9292L18.2667 27C16.5024 28.1266 15.0497 29.6786 14.0421 31.5134C13.0344 33.3481 12.5041 35.4067 12.5 37.5L12.6 75C12.5965 76.644 12.9191 78.2723 13.5492 79.7907C14.1793 81.3091 15.1044 82.6874 16.2708 83.8458C17.4 84.9875 18.7417 85.8917 20.2333 86.5167C21.775 87.175 23.4083 87.5 25.1 87.5C26.7444 87.5065 28.3736 87.1853 29.8924 86.555C31.4112 85.9247 32.7892 84.9981 33.9458 83.8292C35.0833 82.7 35.9875 81.3625 36.6167 79.8667C37.2708 78.3292 37.6 76.6917 37.6 75L37.5 66.6667C37.4983 66.11 37.6088 65.5588 37.825 65.0458C38.2554 64.0526 39.0459 63.2591 40.0375 62.825C40.5542 62.6125 41.1 62.5 41.6667 62.5H45.8333V79.1667C45.8333 81.3768 46.7113 83.4964 48.2741 85.0592C49.8369 86.622 51.9565 87.5 54.1667 87.5H83.3333C85.5435 87.5 87.6631 86.622 89.2259 85.0592C90.7887 83.4964 91.6667 81.3768 91.6667 79.1667V20.8333C91.6667 18.6232 90.7887 16.5036 89.2259 14.9408C87.6631 13.378 85.5435 12.5 83.3333 12.5H54.1667C51.9565 12.5 49.8369 13.378 48.2741 14.9408C46.7113 16.5036 45.8333 18.6232 45.8333 20.8333V54.1667H41.6667C40.0233 54.167 38.3961 54.4914 36.8782 55.1213C35.3604 55.7512 33.9816 56.6742 32.8208 57.8375C31.6588 58.9949 30.7376 60.3711 30.1104 61.8865C29.4832 63.4019 29.1625 65.0266 29.1667 66.6667L29.2625 75C29.2633 75.5453 29.1566 76.0854 28.9486 76.5894C28.7405 77.0934 28.4352 77.5515 28.05 77.9375C27.6714 78.3223 27.2213 78.6294 26.725 78.8417C26.0913 79.1146 25.3996 79.2253 24.7124 79.1636C24.0252 79.102 23.3642 78.87 22.7893 78.4886C22.2143 78.1072 21.7435 77.5885 21.4194 76.9794C21.0954 76.3702 20.9283 75.6899 20.9333 75L20.8708 49.2417C23.7792 50.275 27.05 50.4625 30.7792 48.4333C34.1167 46.6208 36.6958 43.3833 37.3208 39.6375C37.7446 37.1736 37.4172 34.6392 36.3814 32.3639C35.3455 30.0885 33.649 28.1775 31.5125 26.8792L40.125 19.9042L34.875 13.4292L18.2083 26.9292ZM83.3333 33.3333H54.1667V20.8333H83.3333V33.3333ZM27.9463 40.4463C27.1649 41.2277 26.1051 41.6667 25 41.6667C23.8949 41.6667 22.8351 41.2277 22.0537 40.4463C21.2723 39.6649 20.8333 38.6051 20.8333 37.5C20.8333 36.3949 21.2723 35.3351 22.0537 34.5537C22.8351 33.7723 23.8949 33.3333 25 33.3333C26.1051 33.3333 27.1649 33.7723 27.9463 34.5537C28.7277 35.3351 29.1667 36.3949 29.1667 37.5C29.1667 38.6051 28.7277 39.6649 27.9463 40.4463ZM55.6854 52.8557C55.4398 53.1086 55.2586 53.4167 55.1569 53.7542L55.1604 53.7278C55.005 54.1938 54.9615 54.6899 55.0335 55.1759C55.1163 55.8119 55.3824 56.3898 55.7717 56.8513L55.7735 56.8689C55.7981 57.0469 55.8351 57.2195 55.8845 57.3834C56.0892 57.9265 56.4518 58.3959 56.9257 58.7311C57.2762 58.976 57.6797 59.1486 58.1219 59.2297C58.2223 59.242 58.3227 59.2473 58.4249 59.2473C58.4342 59.2473 58.4435 59.2473 58.4528 59.2472C58.5454 59.2468 58.6367 59.2464 58.7279 59.2896C59.2397 61.2335 60.4286 62.9309 62.0805 64.0762V68.2868H63.948C66.2735 68.2868 67.3658 68.2868 67.3658 66.9655L67.2759 66.2643C69.0512 66.6029 70.874 66.6077 72.651 66.2784V66.9655C72.651 68.2868 73.7257 68.2868 76.0335 68.2868H77.9362L77.9627 64.041C78.9942 63.2923 79.8607 62.3394 80.5084 61.2416H81.4597C83.521 61.2416 83.2215 54.1946 83.2215 54.1946L80.4855 54.1506C79.9198 53.1613 79.1748 52.286 78.2886 51.5696L79.698 47.1476C75.0822 47.1476 74.078 48.698 73.9688 49.4626C72.6902 49.0992 71.3676 48.9136 70.0383 48.9111C69.8234 48.8988 69.6067 48.8935 69.3882 48.8935C65.1037 48.8935 61.3564 51.1891 59.2741 54.6562C59.2212 54.4888 59.1507 54.332 59.0627 54.1876C58.8568 53.8353 58.5278 53.5716 58.1391 53.4473C57.7504 53.3231 57.3295 53.347 56.9574 53.5146C56.6214 53.6619 56.3299 53.8945 56.1117 54.1893C56.001 54.3461 55.9165 54.5199 55.8616 54.7038C55.8319 54.4557 55.8319 54.2049 55.8616 53.9568C55.8809 53.6696 55.9444 53.393 56.043 53.1341C56.1311 52.8804 56.2491 52.6425 56.3795 52.4364C56.1134 52.5082 55.8728 52.6535 55.6854 52.8557ZM76.1034 54.1412C76.3512 53.8934 76.6873 53.7542 77.0377 53.7542C77.3882 53.7542 77.7243 53.8934 77.972 54.1412C78.2198 54.389 78.3591 54.7251 78.3591 55.0755C78.3591 55.4259 78.2198 55.762 77.972 56.0098C77.7243 56.2576 77.3882 56.3968 77.0377 56.3968C76.6873 56.3968 76.3512 56.2576 76.1034 56.0098C75.8556 55.762 75.7164 55.4259 75.7164 55.0755C75.7164 54.7251 75.8556 54.389 76.1034 54.1412ZM73.4697 52.4083C73.2765 52.488 73.0614 52.4967 72.8624 52.4329L72.9523 52.4505C71.9604 52.2074 70.9245 52.0788 69.8586 52.0788H69.7018C68.6895 52.0758 67.6805 52.1941 66.6963 52.4311H66.4268C66.2987 52.4099 66.1772 52.3596 66.0715 52.2842C65.9659 52.2088 65.8789 52.1102 65.8172 51.996C65.7951 51.9283 65.7838 51.8575 65.7837 51.7863C65.7837 51.4516 66.0233 51.1732 66.2453 51.1309C67.3464 50.8632 68.495 50.7222 69.6789 50.7222L69.8569 50.724C71.0483 50.7035 72.2375 50.8337 73.3962 51.1116C73.4916 51.1303 73.5819 51.169 73.6612 51.2251C73.7405 51.2813 73.807 51.3536 73.8563 51.4374C73.9055 51.5211 73.9365 51.6144 73.9471 51.711C73.9577 51.8075 73.9477 51.9053 73.9177 51.9977C73.8215 52.1832 73.6628 52.3287 73.4697 52.4083ZM58.3333 57.9454C58.0452 57.8873 57.7729 57.7677 57.5352 57.5948L57.463 57.5243H57.5C57.8981 57.5243 58.2663 57.3922 58.557 57.172V57.7181V57.9648L58.3333 57.9454ZM57.8703 56.3111C57.7249 56.3897 57.558 56.4198 57.3943 56.3968L57.3996 56.3598C57.233 56.3656 57.0664 56.3526 56.9028 56.321C56.8668 56.0769 56.8662 55.8289 56.901 55.5846V55.5829C56.901 55.4119 56.9529 55.2449 57.0498 55.104C57.1467 54.9631 57.284 54.8549 57.4436 54.7936C57.5687 54.7243 57.7149 54.7032 57.8545 54.7344C57.9941 54.7656 58.1174 54.8468 58.2012 54.9627C58.2824 55.1163 58.3251 55.2874 58.3254 55.4611C58.3257 55.6348 58.2837 55.806 58.2029 55.9599C58.1324 56.1094 58.0158 56.2325 57.8703 56.3111Z" fill="#349FCF"/>
</svg>
