<svg xmlns="http://www.w3.org/2000/svg" width="1133" height="4" fill="#35342f" fill-rule="evenodd" xmlns:v="https://vecta.io/nano"><circle cx="729.5" cy="2" r="1.5"/><circle cx="721.549" cy="2" r="1.5"/><circle cx="737.5" cy="2" r="1.5"/><circle cx="745.5" cy="2" r="1.5"/><circle cx="753.5" cy="2" r="1.5"/><circle cx="769.556" cy="2" r="1.5"/><circle cx="761.5" cy="2" r="1.5"/><circle cx="777.556" cy="2" r="1.5"/><circle cx="785.556" cy="2" r="1.5"/><circle cx="657.451" cy="2" r="1.5"/><circle cx="649.5" cy="2" r="1.5"/><circle cx="665.451" cy="2" r="1.5"/><circle cx="673.451" cy="2" r="1.5"/><circle cx="681.451" cy="2" r="1.5"/><circle cx="697.507" cy="2" r="1.5"/><circle cx="689.451" cy="2" r="1.5"/><circle cx="705.507" cy="2" r="1.5"/><circle cx="713.507" cy="2" r="1.5"/><circle cx="585.451" cy="2" r="1.5"/><circle cx="577.5" cy="2" r="1.5"/><circle cx="593.451" cy="2" r="1.5"/><circle cx="601.451" cy="2" r="1.5"/><circle cx="609.451" cy="2" r="1.5"/><circle cx="625.507" cy="2" r="1.5"/><circle cx="617.451" cy="2" r="1.5"/><circle cx="633.507" cy="2" r="1.5"/><circle cx="641.507" cy="2" r="1.5"/><circle cx="513.451" cy="2" r="1.5"/><circle cx="505.5" cy="2" r="1.5"/><circle cx="521.451" cy="2" r="1.5"/><circle cx="529.451" cy="2" r="1.5"/><circle cx="537.451" cy="2" r="1.5"/><circle cx="553.507" cy="2" r="1.5"/><circle cx="545.451" cy="2" r="1.5"/><circle cx="561.507" cy="2" r="1.5"/><circle cx="569.507" cy="2" r="1.5"/><circle cx="441.451" cy="2" r="1.5"/><circle cx="433.5" cy="2" r="1.5"/><circle cx="449.451" cy="2" r="1.5"/><circle cx="457.451" cy="2" r="1.5"/><circle cx="465.451" cy="2" r="1.5"/><circle cx="481.507" cy="2" r="1.5"/><circle cx="473.451" cy="2" r="1.5"/><circle cx="489.507" cy="2" r="1.5"/><circle cx="497.507" cy="2" r="1.5"/><circle cx="369.451" cy="2" r="1.5"/><circle cx="361.5" cy="2" r="1.5"/><circle cx="377.451" cy="2" r="1.5"/><circle cx="385.451" cy="2" r="1.5"/><circle cx="393.451" cy="2" r="1.5"/><circle cx="409.507" cy="2" r="1.5"/><circle cx="401.451" cy="2" r="1.5"/><circle cx="417.507" cy="2" r="1.5"/><circle cx="425.507" cy="2" r="1.5"/><circle cx="297.451" cy="2" r="1.5"/><circle cx="289.5" cy="2" r="1.5"/><circle cx="305.451" cy="2" r="1.5"/><circle cx="313.451" cy="2" r="1.5"/><circle cx="321.451" cy="2" r="1.5"/><circle cx="337.507" cy="2" r="1.5"/><circle cx="329.451" cy="2" r="1.5"/><circle cx="345.507" cy="2" r="1.5"/><circle cx="353.507" cy="2" r="1.5"/><circle cx="225.451" cy="2" r="1.5"/><circle cx="217.5" cy="2" r="1.5"/><circle cx="233.451" cy="2" r="1.5"/><circle cx="241.451" cy="2" r="1.5"/><circle cx="249.451" cy="2" r="1.5"/><circle cx="265.507" cy="2" r="1.5"/><circle cx="257.451" cy="2" r="1.5"/><circle cx="273.507" cy="2" r="1.5"/><circle cx="281.507" cy="2" r="1.5"/><circle cx="153.451" cy="2" r="1.5"/><circle cx="145.5" cy="2" r="1.5"/><circle cx="161.451" cy="2" r="1.5"/><circle cx="169.451" cy="2" r="1.5"/><circle cx="177.451" cy="2" r="1.5"/><circle cx="193.507" cy="2" r="1.5"/><circle cx="185.451" cy="2" r="1.5"/><circle cx="201.507" cy="2" r="1.5"/><circle cx="209.507" cy="2" r="1.5"/><circle cx="81.451" cy="2" r="1.5"/><circle cx="73.5" cy="2" r="1.5"/><circle cx="89.451" cy="2" r="1.5"/><circle cx="97.451" cy="2" r="1.5"/><circle cx="105.451" cy="2" r="1.5"/><circle cx="121.507" cy="2" r="1.5"/><circle cx="113.451" cy="2" r="1.5"/><circle cx="129.507" cy="2" r="1.5"/><circle cx="137.507" cy="2" r="1.5"/><circle cx="9.451" cy="2" r="1.5"/><circle cx="1.5" cy="2" r="1.5"/><circle cx="17.451" cy="2" r="1.5"/><circle cx="25.451" cy="2" r="1.5"/><circle cx="33.451" cy="2" r="1.5"/><circle cx="49.507" cy="2" r="1.5"/><circle cx="41.451" cy="2" r="1.5"/><circle cx="57.507" cy="2" r="1.5"/><circle cx="65.507" cy="2" r="1.5"/><circle cx="1090.451" cy="2" r="1.5"/><circle cx="1082.5" cy="2" r="1.5"/><circle cx="1098.451" cy="2" r="1.5"/><circle cx="1106.451" cy="2" r="1.5"/><circle cx="1114.451" cy="2" r="1.5"/><circle cx="1130.507" cy="2" r="1.5"/><circle cx="1122.451" cy="2" r="1.5"/><circle cx="1018.451" cy="2" r="1.5"/><circle cx="1010.5" cy="2" r="1.5"/><circle cx="1026.451" cy="2" r="1.5"/><circle cx="1034.451" cy="2" r="1.5"/><circle cx="1042.451" cy="2" r="1.5"/><circle cx="1058.507" cy="2" r="1.5"/><circle cx="1050.451" cy="2" r="1.5"/><circle cx="1066.507" cy="2" r="1.5"/><circle cx="1074.507" cy="2" r="1.5"/><circle cx="946.451" cy="2" r="1.5"/><circle cx="938.5" cy="2" r="1.5"/><circle cx="954.451" cy="2" r="1.5"/><circle cx="962.451" cy="2" r="1.5"/><circle cx="970.451" cy="2" r="1.5"/><circle cx="986.507" cy="2" r="1.5"/><circle cx="978.451" cy="2" r="1.5"/><circle cx="994.507" cy="2" r="1.5"/><circle cx="1002.507" cy="2" r="1.5"/><circle cx="874.451" cy="2" r="1.5"/><circle cx="866.5" cy="2" r="1.5"/><circle cx="882.451" cy="2" r="1.5"/><circle cx="890.451" cy="2" r="1.5"/><circle cx="898.451" cy="2" r="1.5"/><circle cx="914.507" cy="2" r="1.5"/><circle cx="906.451" cy="2" r="1.5"/><circle cx="922.507" cy="2" r="1.5"/><circle cx="930.507" cy="2" r="1.5"/><circle cx="802.451" cy="2" r="1.5"/><circle cx="794.5" cy="2" r="1.5"/><circle cx="810.451" cy="2" r="1.5"/><circle cx="818.451" cy="2" r="1.5"/><circle cx="826.451" cy="2" r="1.5"/><circle cx="842.507" cy="2" r="1.5"/><circle cx="834.451" cy="2" r="1.5"/><circle cx="850.507" cy="2" r="1.5"/><circle cx="858.507" cy="2" r="1.5"/></svg>