<svg width="33" height="32" viewBox="0 0 33 32" fill="none" xmlns="http://www.w3.org/2000/svg">
<ellipse cx="16.2759" cy="16" rx="16.2759" ry="16" fill="white"/>
<path d="M16.2759 32C7.2865 32 0 24.837 0 16C0 7.163 7.2865 0 16.2759 0C25.2652 0 32.5517 7.163 32.5517 16C32.5517 24.837 25.2652 32 16.2759 32ZM12.3249 14.404L16.2759 10.52L20.2289 14.406L22.5278 12.146L16.2759 6L10.0259 12.144L12.3249 14.404ZM6.10345 16L8.40241 18.26L10.7014 16L8.40241 13.74L6.10345 16ZM12.3249 17.596L10.0229 19.853L10.0259 19.856L16.2759 26L22.5278 19.854V19.853L20.2289 17.593L16.2759 21.48L12.3249 17.596ZM21.8503 16L24.1493 18.26L26.4483 16L24.1493 13.74L21.8503 16ZM18.6074 15.998H18.6084L16.2759 13.706L14.5516 15.4L14.3533 15.595L13.9454 15.997L13.9413 16L13.9454 16.003L16.2748 18.294L18.6084 16.001L18.6094 16L18.6074 15.999V15.998Z" fill="black"/>
</svg>
