<?xml version="1.0" encoding="UTF-8"?>
<svg width="33px" height="32px" viewBox="0 0 33 32" version="1.1" xmlns="http://www.w3.org/2000/svg" xmlns:xlink="http://www.w3.org/1999/xlink">
    <title>eth</title>
    <defs>
        <rect id="path-1" x="0" y="0" width="21" height="21"></rect>
    </defs>
    <g id="Page-1" stroke="none" stroke-width="1" fill="none" fill-rule="evenodd">
        <g id="eth">
            <ellipse id="Oval" fill="#000000" fill-rule="nonzero" cx="16.2759" cy="16" rx="16.2759" ry="16"></ellipse>
            <g id="Mask_Group_3-Clipped" transform="translate(6.000000, 6.000000)">
                <mask id="mask-2" fill="white">
                    <use xlink:href="#path-1"></use>
                </mask>
                <g id="Rectangle_32"></g>
                <g id="Mask_Group_3" mask="url(#mask-2)" fill="#FFFFFF" fill-rule="nonzero">
                    <g transform="translate(0.336000, 1.680000)" id="Path_151">
                        <path d="M15.369816,5.340552 C14.9728341,5.118677 14.4891579,5.118677 14.092176,5.340552 L11.160912,7.040712 L9.169272,8.149512 L6.238176,9.849672 C5.84114322,10.0713515 5.35756878,10.0713515 4.960536,9.849672 L2.630544,8.519112 C2.24498798,8.29801551 2.00291806,7.89159285 1.992144,7.447272 L1.992144,4.823112 C1.98679474,4.3743002 2.23335985,3.96033036 2.630544,3.751272 L4.922904,2.457672 C5.31993678,2.23599248 5.80351122,2.23599248 6.200544,2.457672 L8.492904,3.751272 C8.87846002,3.97236849 9.12052994,4.37879115 9.131304,4.823112 L9.131304,6.523272 L11.122944,5.377512 L11.122944,3.677352 C11.1282933,3.2285402 10.8817282,2.81457036 10.484544,2.605512 L6.238176,0.16632 C5.84114322,-0.0553595175 5.35756878,-0.0553595175 4.960536,0.16632 L0.6384,2.60568 C0.241270107,2.81471075 -0.00528583897,3.22860032 -8.53129562e-05,3.677352 L-8.53129562e-05,8.593032 C-0.00534925794,9.0418438 0.241215846,9.45581364 0.6384,9.664872 L4.960032,12.104232 C5.35706478,12.3259115 5.84063922,12.3259115 6.237672,12.104232 L9.168768,10.441032 L11.160408,9.295272 L14.091672,7.632072 C14.4886539,7.410197 14.9723301,7.410197 15.369312,7.632072 L17.661672,8.925672 C18.047204,9.14679287 18.2892651,9.55320062 18.300072,9.997512 L18.300072,12.621672 C18.3054213,13.0704838 18.0588562,13.4844536 17.661672,13.693512 L15.369312,15.024072 C14.9722792,15.2457515 14.4887048,15.2457515 14.091672,15.024072 L11.799312,13.730472 C11.41378,13.5093511 11.1717189,13.1029434 11.160912,12.658632 L11.160912,10.958304 L9.169272,12.104064 L9.169272,13.804224 C9.16392274,14.2530358 9.41048785,14.6670056 9.807672,14.876064 L14.129304,17.315424 C14.5263368,17.5371035 15.0099112,17.5371035 15.406944,17.315424 L19.728576,14.876064 C20.114108,14.6549431 20.3561691,14.2485354 20.3670613,13.804224 L20.3670613,8.888712 C20.3723253,8.4399002 20.1257602,8.02593036 19.728576,7.816872 L15.369816,5.340552 Z"></path>
                    </g>
                </g>
            </g>
        </g>
    </g>
</svg>